<svg id="icon" height="512" viewBox="0 0 128 128" width="512" xmlns="http://www.w3.org/2000/svg"><path d="m122.442 4a3.982 3.982 0 0 0 -5-2.828l-82.042 24.618a1.361 1.361 0 0 0 .7 2.628l83.394-19.559a3.981 3.981 0 0 0 2.948-4.859z" fill="#fc9386"/><path d="m35.8 29.454a2.36 2.36 0 0 1 -.685-4.621l82.038-24.622a4.98 4.98 0 0 1 6.258 3.539 4.982 4.982 0 0 1 -3.689 6.083l-83.388 19.559a2.371 2.371 0 0 1 -.534.062zm82.791-27.454a3.016 3.016 0 0 0 -.863.127l-82.037 24.622a.36.36 0 0 0 .186.7l83.389-19.564a2.982 2.982 0 0 0 2.208-3.64 2.985 2.985 0 0 0 -2.883-2.245z" fill="#2f3a5a"/><path d="m123.635 20.367a3.981 3.981 0 0 0 -4.83-3.113l-83.325 19.826a1.361 1.361 0 0 0 .548 2.664l84.382-14.694a3.982 3.982 0 0 0 3.225-4.683z" fill="#fc9386"/><path d="m35.8 40.764a2.361 2.361 0 0 1 -.55-4.657l83.325-19.826a4.982 4.982 0 1 1 2.008 9.754l-84.383 14.694a2.388 2.388 0 0 1 -.4.035zm83.935-22.62a2.964 2.964 0 0 0 -.7.083l-83.324 19.826a.359.359 0 0 0 -.27.419.363.363 0 0 0 .415.287l84.383-14.695a2.981 2.981 0 0 0 2.415-3.506 2.99 2.99 0 0 0 -2.92-2.414z" fill="#2f3a5a"/><rect fill="#fac77c" height="84.485" rx="3.635" width="7.27" x="42.593" y="18.043"/><path d="m46.228 103.528a4.64 4.64 0 0 1 -4.635-4.635v-77.94c0-2.375 1.819-3.91 4.635-3.91s4.635 1.535 4.635 3.91v77.94a4.641 4.641 0 0 1 -4.635 4.635zm0-84.485c-.984 0-2.635.248-2.635 1.91v77.94a2.635 2.635 0 0 0 5.27 0v-77.94c0-1.662-1.651-1.91-2.635-1.91z" fill="#2f3a5a"/><rect fill="#fac77c" height="84.485" rx="3.635" width="7.27" x="49.863" y="16.111"/><path d="m53.5 101.6a4.64 4.64 0 0 1 -4.635-4.635v-77.944c0-2.375 1.819-3.91 4.635-3.91s4.634 1.535 4.634 3.91v77.94a4.64 4.64 0 0 1 -4.634 4.639zm0-84.485c-.984 0-2.635.248-2.635 1.91v77.94a2.635 2.635 0 1 0 5.269 0v-77.944c-.002-1.662-1.653-1.91-2.634-1.91z" fill="#2f3a5a"/><rect fill="#fac77c" height="84.485" rx="3.635" width="7.27" x="57.133" y="15.224"/><path d="m60.768 100.709a4.641 4.641 0 0 1 -4.636-4.635v-77.94c0-2.376 1.82-3.91 4.636-3.91s4.634 1.534 4.634 3.91v77.94a4.64 4.64 0 0 1 -4.634 4.635zm0-84.485c-.985 0-2.636.248-2.636 1.91v77.94a2.635 2.635 0 1 0 5.27 0v-77.94c-.002-1.662-1.651-1.91-2.634-1.91z" fill="#2f3a5a"/><path d="m2.755 57.991a61.246 61.246 0 0 0 122.49 0z" fill="#dbe2eb"/><path d="m125.243 57.991a61.259 61.259 0 0 1 -68.726 60.362 61.251 61.251 0 0 0 53.75-60.362z" fill="#bac2d3"/><path d="m64 119.809a62.41 62.41 0 0 1 -62.245-61.809 1 1 0 0 1 1-1.007h122.49a1 1 0 0 1 1 1.007 62.41 62.41 0 0 1 -62.245 61.809zm-60.229-60.818a60.246 60.246 0 0 0 120.458 0z" fill="#2f3a5a"/><path d="m44.045 115.51v8.632a2.859 2.859 0 0 0 2.855 2.858h34.2a2.859 2.859 0 0 0 2.858-2.858v-8.632z" fill="#dbe2eb"/><path d="m83.95 115.509v8.631a2.846 2.846 0 0 1 -2.85 2.86h-34.195a2.846 2.846 0 0 1 -2.855-2.855v-1.382h31.313a2.861 2.861 0 0 0 2.855-2.855v-4.394z" fill="#bac2d3"/><path d="m81.1 128h-34.2a3.863 3.863 0 0 1 -3.858-3.858v-8.632a1 1 0 0 1 1-1h39.91a1 1 0 0 1 1 1v8.632a3.863 3.863 0 0 1 -3.852 3.858zm-36.055-11.49v7.632a1.859 1.859 0 0 0 1.855 1.858h34.2a1.859 1.859 0 0 0 1.858-1.858v-7.632z" fill="#2f3a5a"/><path d="m123.54 71.891a61.385 61.385 0 0 0 1.7-13.9h-122.485a61.385 61.385 0 0 0 1.705 13.9z" fill="#8ccfb5"/><path d="m125.243 57.991a61.5 61.5 0 0 1 -1.706 13.909h-15.177a61.5 61.5 0 0 0 1.706-13.906z" fill="#83bfac"/><path d="m123.54 72.892h-119.08a1 1 0 0 1 -.973-.767 62.552 62.552 0 0 1 -1.732-14.125 1 1 0 0 1 1-1.007h122.49a1 1 0 0 1 1 1.007 62.552 62.552 0 0 1 -1.732 14.127 1 1 0 0 1 -.973.765zm-118.287-2h117.494a60.551 60.551 0 0 0 1.482-11.9h-120.458a60.551 60.551 0 0 0 1.482 11.9z" fill="#2f3a5a"/></svg>